<?xml version="1.0" encoding="UTF-8" standalone="no"?>
<!-- Created with sK1/UniConvertor (http://sk1project.org/) -->

<svg
   xmlns:dc="http://purl.org/dc/elements/1.1/"
   xmlns:cc="http://creativecommons.org/ns#"
   xmlns:rdf="http://www.w3.org/1999/02/22-rdf-syntax-ns#"
   xmlns:svg="http://www.w3.org/2000/svg"
   xmlns="http://www.w3.org/2000/svg"
   xmlns:sodipodi="http://sodipodi.sourceforge.net/DTD/sodipodi-0.dtd"
   xmlns:inkscape="http://www.inkscape.org/namespaces/inkscape"
   width="595.276pt"
   height="841.89pt"
   viewBox="0 0 595.276 841.89"
   fill-rule="evenodd"
   version="1.1"
   id="svg38"
   sodipodi:docname="FullPanel.svg"
   inkscape:version="0.92.4 (5da689c313, 2019-01-14)">
  <metadata
     id="metadata44">
    <rdf:RDF>
      <cc:Work
         rdf:about="">
        <dc:format>image/svg+xml</dc:format>
        <dc:type
           rdf:resource="http://purl.org/dc/dcmitype/StillImage" />
      </cc:Work>
    </rdf:RDF>
  </metadata>
  <defs
     id="defs42" />
  <sodipodi:namedview
     pagecolor="#ffffff"
     bordercolor="#666666"
     borderopacity="1"
     objecttolerance="10"
     gridtolerance="10"
     guidetolerance="10"
     inkscape:pageopacity="0"
     inkscape:pageshadow="2"
     inkscape:window-width="3840"
     inkscape:window-height="2004"
     id="namedview40"
     showgrid="false"
     inkscape:zoom="1.49396"
     inkscape:cx="396.85067"
     inkscape:cy="721.90688"
     inkscape:window-x="-16"
     inkscape:window-y="-16"
     inkscape:window-maximized="1"
     inkscape:current-layer="svg38" />
  <g
     id="g36"
     transform="translate(-23.092988,-731.9473)">
    <path
       style="fill:none;stroke:#000000;stroke-width:0.85039401;stroke-linecap:round;stroke-linejoin:round"
       d="m 107,881.89 v -80"
       id="path28"
       inkscape:connector-curvature="0" />
    <path
       style="fill:none;stroke:#000000;stroke-width:0.85039401;stroke-linecap:round;stroke-linejoin:round"
       d="m 99.125,816.89 c 0,-0.621 -0.504,-1.125 -1.125,-1.125 -0.621,0 -1.125,0.504 -1.125,1.125 0,0.621 0.504,1.125 1.125,1.125 0.621,0 1.125,-0.504 1.125,-1.125 z"
       id="path30"
       inkscape:connector-curvature="0" />
    <path
       style="fill:none;stroke:#000000;stroke-width:0.85039401;stroke-linecap:round;stroke-linejoin:round"
       d="m 100.375,841.89 c 0,-0.759 -0.616,-1.375 -1.375,-1.375 -0.759,0 -1.375,0.616 -1.375,1.375 0,0.759 0.616,1.375 1.375,1.375 0.759,0 1.375,-0.616 1.375,-1.375 z"
       id="path32"
       inkscape:connector-curvature="0" />
    <path
       style="fill:none;stroke:#000000;stroke-width:0.85039401;stroke-linecap:round;stroke-linejoin:round"
       d="m 99.125,866.89 c 0,-0.621 -0.504,-1.125 -1.125,-1.125 -0.621,0 -1.125,0.504 -1.125,1.125 0,0.621 0.504,1.125 1.125,1.125 0.621,0 1.125,-0.504 1.125,-1.125 z"
       id="path34"
       inkscape:connector-curvature="0" />
  </g>
</svg>
