  0
SECTION
  2
HEADER
  9
$ACADVER
  1
AC1014
  9
$HANDSEED
  5
FFFF
  9
$MEASUREMENT
 70
     1
  0
ENDSEC
  0
SECTION
  2
TABLES
  0
TABLE
  2
VPORT
  5
8
330
0
100
AcDbSymbolTable
 70
     4
  0
VPORT
  5
2E
330
8
100
AcDbSymbolTableRecord
100
AcDbViewportTableRecord
  2
*ACTIVE
 70
     0
 10
0.0
 20
0.0
 11
1.0
 21
1.0
 12
210.0
 22
148.5
 13
0.0
 23
0.0
 14
10.0
 24
10.0
 15
10.0
 25
10.0
 16
0.0
 26
0.0
 36
1.0
 17
0.0
 27
0.0
 37
0.0
 40
341.0
 41
1.24
 42
50.0
 43
0.0
 44
0.0
 50
0.0
 51
0.0
 71
     0
 72
   100
 73
     1
 74
     3
 75
     0
 76
     0
 77
     0
 78
     0
  0
ENDTAB
  0
TABLE
  2
LTYPE
  5
5
330
0
100
AcDbSymbolTable
 70
     1
  0
LTYPE
  5
14
330
5
100
AcDbSymbolTableRecord
100
AcDbLinetypeTableRecord
  2
BYBLOCK
 70
     0
  3

 72
    65
 73
     0
 40
0.0
  0
LTYPE
  5
15
330
5
100
AcDbSymbolTableRecord
100
AcDbLinetypeTableRecord
  2
BYLAYER
 70
     0
  3

 72
    65
 73
     0
 40
0.0
  0
LTYPE
  5
16
330
5
100
AcDbSymbolTableRecord
100
AcDbLinetypeTableRecord
  2
CONTINUOUS
 70
     0
  3
Solid line
 72
    65
 73
     0
 40
0.0
  0
ENDTAB
  0
TABLE
  2
LAYER
  5
2
100
AcDbSymbolTable
 70
1
  0
LAYER
  5
50
100
AcDbSymbolTableRecord
100
AcDbLayerTableRecord
  2
0
 70
0
  6
CONTINUOUS
  0
ENDTAB
  0
TABLE
  2
STYLE
  5
3
330
0
100
AcDbSymbolTable
 70
     1
  0
STYLE
  5
11
330
3
100
AcDbSymbolTableRecord
100
AcDbTextStyleTableRecord
  2
STANDARD
 70
     0
 40
0.0
 41
1.0
 50
0.0
 71
     0
 42
2.5
  3
txt
  4

  0
ENDTAB
  0
TABLE
  2
VIEW
  5
6
330
0
100
AcDbSymbolTable
 70
     0
  0
ENDTAB
  0
TABLE
  2
UCS
  5
7
330
0
100
AcDbSymbolTable
 70
     0
  0
ENDTAB
  0
TABLE
  2
APPID
  5
9
330
0
100
AcDbSymbolTable
 70
     2
  0
APPID
  5
12
330
9
100
AcDbSymbolTableRecord
100
AcDbRegAppTableRecord
  2
ACAD
 70
     0
  0
ENDTAB
  0
TABLE
  2
DIMSTYLE
  5
A
330
0
100
AcDbSymbolTable
 70
     1
  0
DIMSTYLE
105
27
330
A
100
AcDbSymbolTableRecord
100
AcDbDimStyleTableRecord
  2
ISO-25
 70
     0
  3

  4

  5

  6

  7

 40
1.0
 41
2.5
 42
0.625
 43
3.75
 44
1.25
 45
0.0
 46
0.0
 47
0.0
 48
0.0
140
2.5
141
2.5
142
0.0
143
0.03937007874016
144
1.0
145
0.0
146
1.0
147
0.625
 71
     0
 72
     0
 73
     0
 74
     0
 75
     0
 76
     0
 77
     1
 78
     8
170
     0
171
     3
172
     1
173
     0
174
     0
175
     0
176
     0
177
     0
178
     0
270
     2
271
     2
272
     2
273
     2
274
     3
340
11
275
     0
280
     0
281
     0
282
     0
283
     0
284
     8
285
     0
286
     0
287
     3
288
     0
  0
ENDTAB
  0
TABLE
  2
BLOCK_RECORD
  5
1
330
0
100
AcDbSymbolTable
 70
     1
  0
BLOCK_RECORD
  5
1F
330
1
100
AcDbSymbolTableRecord
100
AcDbBlockTableRecord
  2
*MODEL_SPACE
  0
BLOCK_RECORD
  5
1B
330
1
100
AcDbSymbolTableRecord
100
AcDbBlockTableRecord
  2
*PAPER_SPACE
  0
ENDTAB
  0
ENDSEC
  0
SECTION
  2
BLOCKS
  0
BLOCK
  5
20
330
1F
100
AcDbEntity
  8
0
100
AcDbBlockBegin
  2
*MODEL_SPACE
 70
     0
 10
0.0
 20
0.0
 30
0.0
  3
*MODEL_SPACE
  1

  0
ENDBLK
  5
21
330
1F
100
AcDbEntity
  8
0
100
AcDbBlockEnd
  0
BLOCK
  5
1C
330
1B
100
AcDbEntity
 67
     1
  8
0
100
AcDbBlockBegin
  2
*PAPER_SPACE
  1

  0
ENDBLK
  5
1D
330
1B
100
AcDbEntity
 67
     1
  8
0
100
AcDbBlockEnd
  0
ENDSEC
  0
SECTION
  2
ENTITIES
  0
SPLINE
  5
100
100
AcDbEntity
  8
0
 62
7
100
AcDbSpline
 70
8
 71
3
 72
8
 73
4
 74
0
 40
0
 40
0
 40
0
 40
0
 40
1
 40
1
 40
1
 40
1
 10
12.836302
 20
286.262711
 30
0.0
 10
12.836302
 20
286.798610
 30
0.0
 10
12.550404
 20
287.293800
 30
0.0
 10
12.086302
 20
287.561749
 30
0.0
  0
SPLINE
  5
101
100
AcDbEntity
  8
0
 62
7
100
AcDbSpline
 70
8
 71
3
 72
8
 73
4
 74
0
 40
0
 40
0
 40
0
 40
0
 40
1
 40
1
 40
1
 40
1
 10
12.086302
 20
287.561749
 30
0.0
 10
11.622200
 20
287.829699
 30
0.0
 10
11.050404
 20
287.829699
 30
0.0
 10
10.586302
 20
287.561749
 30
0.0
  0
SPLINE
  5
102
100
AcDbEntity
  8
0
 62
7
100
AcDbSpline
 70
8
 71
3
 72
8
 73
4
 74
0
 40
0
 40
0
 40
0
 40
0
 40
1
 40
1
 40
1
 40
1
 10
10.586302
 20
287.561749
 30
0.0
 10
10.122200
 20
287.293800
 30
0.0
 10
9.836302
 20
286.798610
 30
0.0
 10
9.836302
 20
286.262711
 30
0.0
  0
SPLINE
  5
103
100
AcDbEntity
  8
0
 62
7
100
AcDbSpline
 70
8
 71
3
 72
8
 73
4
 74
0
 40
0
 40
0
 40
0
 40
0
 40
1
 40
1
 40
1
 40
1
 10
9.836302
 20
286.262711
 30
0.0
 10
9.836302
 20
285.726813
 30
0.0
 10
10.122200
 20
285.231622
 30
0.0
 10
10.586302
 20
284.963673
 30
0.0
  0
SPLINE
  5
104
100
AcDbEntity
  8
0
 62
7
100
AcDbSpline
 70
8
 71
3
 72
8
 73
4
 74
0
 40
0
 40
0
 40
0
 40
0
 40
1
 40
1
 40
1
 40
1
 10
10.586302
 20
284.963673
 30
0.0
 10
11.050404
 20
284.695724
 30
0.0
 10
11.622200
 20
284.695724
 30
0.0
 10
12.086302
 20
284.963673
 30
0.0
  0
SPLINE
  5
105
100
AcDbEntity
  8
0
 62
7
100
AcDbSpline
 70
8
 71
3
 72
8
 73
4
 74
0
 40
0
 40
0
 40
0
 40
0
 40
1
 40
1
 40
1
 40
1
 10
12.086302
 20
284.963673
 30
0.0
 10
12.550404
 20
285.231622
 30
0.0
 10
12.836302
 20
285.726813
 30
0.0
 10
12.836302
 20
286.262711
 30
0.0
  0
SPLINE
  5
106
100
AcDbEntity
  8
0
 62
7
100
AcDbSpline
 70
8
 71
3
 72
8
 73
4
 74
0
 40
0
 40
0
 40
0
 40
0
 40
1
 40
1
 40
1
 40
1
 10
14.836302
 20
281.262711
 30
0.0
 10
14.836302
 20
280.864887
 30
0.0
 10
14.678267
 20
280.483356
 30
0.0
 10
14.396962
 20
280.202051
 30
0.0
  0
SPLINE
  5
107
100
AcDbEntity
  8
0
 62
7
100
AcDbSpline
 70
8
 71
3
 72
8
 73
4
 74
0
 40
0
 40
0
 40
0
 40
0
 40
1
 40
1
 40
1
 40
1
 10
14.396962
 20
280.202051
 30
0.0
 10
14.115658
 20
279.920746
 30
0.0
 10
13.734127
 20
279.762711
 30
0.0
 10
13.336302
 20
279.762711
 30
0.0
  0
LWPOLYLINE
  5
108
100
AcDbEntity
  8
0
 62
7
100
AcDbPolyline
 90
1
 70
1
 10
12.836302
 20
286.262711
 30
0.0
  0
SPLINE
  5
109
100
AcDbEntity
  8
0
 62
7
100
AcDbSpline
 70
8
 71
3
 72
8
 73
4
 74
0
 40
0
 40
0
 40
0
 40
0
 40
1
 40
1
 40
1
 40
1
 10
7.836302
 20
289.762711
 30
0.0
 10
7.836302
 20
289.762711
 30
0.0
 10
13.336302
 20
289.762711
 30
0.0
 10
13.336302
 20
289.762711
 30
0.0
  0
SPLINE
  5
10a
100
AcDbEntity
  8
0
 62
7
100
AcDbSpline
 70
8
 71
3
 72
8
 73
4
 74
0
 40
0
 40
0
 40
0
 40
0
 40
1
 40
1
 40
1
 40
1
 10
13.336302
 20
289.762711
 30
0.0
 10
13.734127
 20
289.762711
 30
0.0
 10
14.115658
 20
289.604676
 30
0.0
 10
14.396962
 20
289.323371
 30
0.0
  0
SPLINE
  5
10b
100
AcDbEntity
  8
0
 62
7
100
AcDbSpline
 70
8
 71
3
 72
8
 73
4
 74
0
 40
0
 40
0
 40
0
 40
0
 40
1
 40
1
 40
1
 40
1
 10
14.396962
 20
289.323371
 30
0.0
 10
14.678267
 20
289.042067
 30
0.0
 10
14.836302
 20
288.660536
 30
0.0
 10
14.836302
 20
288.262711
 30
0.0
  0
LWPOLYLINE
  5
10c
100
AcDbEntity
  8
0
 62
7
100
AcDbPolyline
 90
3
 70
0
 10
13.336302
 20
279.762711
 30
0.0
 10
7.836302
 20
279.762711
 30
0.0
 10
7.836302
 20
289.762711
 30
0.0
  0
SPLINE
  5
10d
100
AcDbEntity
  8
0
 62
7
100
AcDbSpline
 70
8
 71
3
 72
8
 73
4
 74
0
 40
0
 40
0
 40
0
 40
0
 40
1
 40
1
 40
1
 40
1
 10
28.170103
 20
282.073854
 30
0.0
 10
27.888798
 20
281.792549
 30
0.0
 10
27.730762
 20
281.411018
 30
0.0
 10
27.730762
 20
281.013192
 30
0.0
  0
LWPOLYLINE
  5
10e
100
AcDbEntity
  8
0
 62
7
100
AcDbPolyline
 90
2
 70
0
 10
14.836302
 20
288.262711
 30
0.0
 10
14.836302
 20
281.262711
 30
0.0
  0
SPLINE
  5
10f
100
AcDbEntity
  8
0
 62
7
100
AcDbSpline
 70
8
 71
3
 72
8
 73
4
 74
0
 40
0
 40
0
 40
0
 40
0
 40
1
 40
1
 40
1
 40
1
 10
27.730762
 20
268.134514
 30
0.0
 10
27.730762
 20
267.736689
 30
0.0
 10
27.888797
 20
267.355157
 30
0.0
 10
28.170101
 20
267.073852
 30
0.0
  0
SPLINE
  5
110
100
AcDbEntity
  8
0
 62
7
100
AcDbSpline
 70
8
 71
3
 72
8
 73
4
 74
0
 40
0
 40
0
 40
0
 40
0
 40
1
 40
1
 40
1
 40
1
 10
28.170101
 20
267.073852
 30
0.0
 10
28.451406
 20
266.792547
 30
0.0
 10
28.832937
 20
266.634512
 30
0.0
 10
29.230762
 20
266.634512
 30
0.0
  0
LWPOLYLINE
  5
111
100
AcDbEntity
  8
0
 62
7
100
AcDbPolyline
 90
2
 70
0
 10
27.730762
 20
281.013192
 30
0.0
 10
27.730762
 20
268.134514
 30
0.0
  0
SPLINE
  5
112
100
AcDbEntity
  8
0
 62
7
100
AcDbSpline
 70
8
 71
3
 72
8
 73
4
 74
0
 40
0
 40
0
 40
0
 40
0
 40
1
 40
1
 40
1
 40
1
 10
35.730762
 20
266.634512
 30
0.0
 10
36.981192
 20
266.634512
 30
0.0
 10
38.136637
 20
267.301608
 30
0.0
 10
38.761852
 20
268.384512
 30
0.0
  0
SPLINE
  5
113
100
AcDbEntity
  8
0
 62
7
100
AcDbSpline
 70
8
 71
3
 72
8
 73
4
 74
0
 40
0
 40
0
 40
0
 40
0
 40
1
 40
1
 40
1
 40
1
 10
38.761852
 20
268.384512
 30
0.0
 10
39.387067
 20
269.467416
 30
0.0
 10
39.387067
 20
270.801609
 30
0.0
 10
38.761852
 20
271.884513
 30
0.0
  0
SPLINE
  5
114
100
AcDbEntity
  8
0
 62
7
100
AcDbSpline
 70
8
 71
3
 72
8
 73
4
 74
0
 40
0
 40
0
 40
0
 40
0
 40
1
 40
1
 40
1
 40
1
 10
38.761852
 20
271.884513
 30
0.0
 10
38.136637
 20
272.967417
 30
0.0
 10
36.981192
 20
273.634514
 30
0.0
 10
35.730762
 20
273.634514
 30
0.0
  0
LWPOLYLINE
  5
115
100
AcDbEntity
  8
0
 62
7
100
AcDbPolyline
 90
2
 70
0
 10
29.230762
 20
266.634512
 30
0.0
 10
35.730762
 20
266.634512
 30
0.0
  0
SPLINE
  5
116
100
AcDbEntity
  8
0
 62
7
100
AcDbSpline
 70
8
 71
3
 72
8
 73
4
 74
0
 40
0
 40
0
 40
0
 40
0
 40
1
 40
1
 40
1
 40
1
 10
34.230763
 20
277.634513
 30
0.0
 10
33.402336
 20
277.634513
 30
0.0
 10
32.730763
 20
276.962941
 30
0.0
 10
32.730763
 20
276.134514
 30
0.0
  0
LWPOLYLINE
  5
117
100
AcDbEntity
  8
0
 62
7
100
AcDbPolyline
 90
3
 70
0
 10
35.730762
 20
273.634514
 30
0.0
 10
32.730763
 20
273.634514
 30
0.0
 10
32.730763
 20
276.134514
 30
0.0
  0
SPLINE
  5
118
100
AcDbEntity
  8
0
 62
7
100
AcDbSpline
 70
8
 71
3
 72
8
 73
4
 74
0
 40
0
 40
0
 40
0
 40
0
 40
1
 40
1
 40
1
 40
1
 10
37.730764
 20
270.134513
 30
0.0
 10
37.730764
 20
270.670411
 30
0.0
 10
37.444865
 20
271.165602
 30
0.0
 10
36.980763
 20
271.433552
 30
0.0
  0
SPLINE
  5
119
100
AcDbEntity
  8
0
 62
7
100
AcDbSpline
 70
8
 71
3
 72
8
 73
4
 74
0
 40
0
 40
0
 40
0
 40
0
 40
1
 40
1
 40
1
 40
1
 10
36.980763
 20
271.433552
 30
0.0
 10
36.516661
 20
271.701501
 30
0.0
 10
35.944864
 20
271.701501
 30
0.0
 10
35.480762
 20
271.433552
 30
0.0
  0
SPLINE
  5
11a
100
AcDbEntity
  8
0
 62
7
100
AcDbSpline
 70
8
 71
3
 72
8
 73
4
 74
0
 40
0
 40
0
 40
0
 40
0
 40
1
 40
1
 40
1
 40
1
 10
35.480762
 20
271.433552
 30
0.0
 10
35.016660
 20
271.165602
 30
0.0
 10
34.730762
 20
270.670411
 30
0.0
 10
34.730762
 20
270.134513
 30
0.0
  0
SPLINE
  5
11b
100
AcDbEntity
  8
0
 62
7
100
AcDbSpline
 70
8
 71
3
 72
8
 73
4
 74
0
 40
0
 40
0
 40
0
 40
0
 40
1
 40
1
 40
1
 40
1
 10
34.730762
 20
270.134513
 30
0.0
 10
34.730762
 20
269.598614
 30
0.0
 10
35.016660
 20
269.103423
 30
0.0
 10
35.480762
 20
268.835474
 30
0.0
  0
SPLINE
  5
11c
100
AcDbEntity
  8
0
 62
7
100
AcDbSpline
 70
8
 71
3
 72
8
 73
4
 74
0
 40
0
 40
0
 40
0
 40
0
 40
1
 40
1
 40
1
 40
1
 10
35.480762
 20
268.835474
 30
0.0
 10
35.944864
 20
268.567524
 30
0.0
 10
36.516661
 20
268.567524
 30
0.0
 10
36.980763
 20
268.835474
 30
0.0
  0
SPLINE
  5
11d
100
AcDbEntity
  8
0
 62
7
100
AcDbSpline
 70
8
 71
3
 72
8
 73
4
 74
0
 40
0
 40
0
 40
0
 40
0
 40
1
 40
1
 40
1
 40
1
 10
36.980763
 20
268.835474
 30
0.0
 10
37.444865
 20
269.103423
 30
0.0
 10
37.730764
 20
269.598614
 30
0.0
 10
37.730764
 20
270.134513
 30
0.0
  0
LWPOLYLINE
  5
11e
100
AcDbEntity
  8
0
 62
7
100
AcDbPolyline
 90
4
 70
0
 10
34.230763
 20
277.634513
 30
0.0
 10
39.730762
 20
277.634513
 30
0.0
 10
39.730762
 20
293.634513
 30
0.0
 10
28.170103
 20
282.073854
 30
0.0
  0
SPLINE
  5
11f
100
AcDbEntity
  8
0
 62
7
100
AcDbSpline
 70
8
 71
3
 72
8
 73
4
 74
0
 40
0
 40
0
 40
0
 40
0
 40
1
 40
1
 40
1
 40
1
 10
22.300849
 20
286.037824
 30
0.0
 10
22.300849
 20
286.573722
 30
0.0
 10
22.014951
 20
287.068913
 30
0.0
 10
21.550849
 20
287.336862
 30
0.0
  0
SPLINE
  5
120
100
AcDbEntity
  8
0
 62
7
100
AcDbSpline
 70
8
 71
3
 72
8
 73
4
 74
0
 40
0
 40
0
 40
0
 40
0
 40
1
 40
1
 40
1
 40
1
 10
21.550849
 20
287.336862
 30
0.0
 10
21.086748
 20
287.604811
 30
0.0
 10
20.514951
 20
287.604811
 30
0.0
 10
20.050849
 20
287.336862
 30
0.0
  0
SPLINE
  5
121
100
AcDbEntity
  8
0
 62
7
100
AcDbSpline
 70
8
 71
3
 72
8
 73
4
 74
0
 40
0
 40
0
 40
0
 40
0
 40
1
 40
1
 40
1
 40
1
 10
20.050849
 20
287.336862
 30
0.0
 10
19.586747
 20
287.068913
 30
0.0
 10
19.300849
 20
286.573722
 30
0.0
 10
19.300849
 20
286.037824
 30
0.0
  0
SPLINE
  5
122
100
AcDbEntity
  8
0
 62
7
100
AcDbSpline
 70
8
 71
3
 72
8
 73
4
 74
0
 40
0
 40
0
 40
0
 40
0
 40
1
 40
1
 40
1
 40
1
 10
19.300849
 20
286.037824
 30
0.0
 10
19.300849
 20
285.501926
 30
0.0
 10
19.586747
 20
285.006735
 30
0.0
 10
20.050849
 20
284.738786
 30
0.0
  0
SPLINE
  5
123
100
AcDbEntity
  8
0
 62
7
100
AcDbSpline
 70
8
 71
3
 72
8
 73
4
 74
0
 40
0
 40
0
 40
0
 40
0
 40
1
 40
1
 40
1
 40
1
 10
20.050849
 20
284.738786
 30
0.0
 10
20.514951
 20
284.470837
 30
0.0
 10
21.086748
 20
284.470837
 30
0.0
 10
21.550849
 20
284.738786
 30
0.0
  0
SPLINE
  5
124
100
AcDbEntity
  8
0
 62
7
100
AcDbSpline
 70
8
 71
3
 72
8
 73
4
 74
0
 40
0
 40
0
 40
0
 40
0
 40
1
 40
1
 40
1
 40
1
 10
21.550849
 20
284.738786
 30
0.0
 10
22.014951
 20
285.006735
 30
0.0
 10
22.300849
 20
285.501926
 30
0.0
 10
22.300849
 20
286.037824
 30
0.0
  0
LWPOLYLINE
  5
125
100
AcDbEntity
  8
0
 62
7
100
AcDbPolyline
 90
1
 70
1
 10
37.730764
 20
270.134513
 30
0.0
  0
SPLINE
  5
126
100
AcDbEntity
  8
0
 62
7
100
AcDbSpline
 70
8
 71
3
 72
8
 73
4
 74
0
 40
0
 40
0
 40
0
 40
0
 40
1
 40
1
 40
1
 40
1
 10
24.300849
 20
281.037824
 30
0.0
 10
24.300849
 20
280.639999
 30
0.0
 10
24.142814
 20
280.258468
 30
0.0
 10
23.861510
 20
279.977163
 30
0.0
  0
SPLINE
  5
127
100
AcDbEntity
  8
0
 62
7
100
AcDbSpline
 70
8
 71
3
 72
8
 73
4
 74
0
 40
0
 40
0
 40
0
 40
0
 40
1
 40
1
 40
1
 40
1
 10
23.861510
 20
279.977163
 30
0.0
 10
23.580205
 20
279.695859
 30
0.0
 10
23.198674
 20
279.537823
 30
0.0
 10
22.800849
 20
279.537823
 30
0.0
  0
LWPOLYLINE
  5
128
100
AcDbEntity
  8
0
 62
7
100
AcDbPolyline
 90
1
 70
1
 10
22.300849
 20
286.037824
 30
0.0
  0
SPLINE
  5
129
100
AcDbEntity
  8
0
 62
7
100
AcDbSpline
 70
8
 71
3
 72
8
 73
4
 74
0
 40
0
 40
0
 40
0
 40
0
 40
1
 40
1
 40
1
 40
1
 10
22.800849
 20
289.537824
 30
0.0
 10
23.198674
 20
289.537824
 30
0.0
 10
23.580205
 20
289.379789
 30
0.0
 10
23.861509
 20
289.098484
 30
0.0
  0
SPLINE
  5
12a
100
AcDbEntity
  8
0
 62
7
100
AcDbSpline
 70
8
 71
3
 72
8
 73
4
 74
0
 40
0
 40
0
 40
0
 40
0
 40
1
 40
1
 40
1
 40
1
 10
23.861509
 20
289.098484
 30
0.0
 10
24.142814
 20
288.817180
 30
0.0
 10
24.300849
 20
288.435649
 30
0.0
 10
24.300849
 20
288.037824
 30
0.0
  0
LWPOLYLINE
  5
12b
100
AcDbEntity
  8
0
 62
7
100
AcDbPolyline
 90
4
 70
0
 10
22.800849
 20
279.537823
 30
0.0
 10
17.300849
 20
279.537823
 30
0.0
 10
17.300849
 20
289.537824
 30
0.0
 10
22.800849
 20
289.537824
 30
0.0
  0
SPLINE
  5
12c
100
AcDbEntity
  8
0
 62
7
100
AcDbSpline
 70
8
 71
3
 72
8
 73
4
 74
0
 40
0
 40
0
 40
0
 40
0
 40
1
 40
1
 40
1
 40
1
 10
12.841110
 20
273.858857
 30
0.0
 10
12.841110
 20
274.394756
 30
0.0
 10
12.555211
 20
274.889946
 30
0.0
 10
12.091110
 20
275.157895
 30
0.0
  0
SPLINE
  5
12d
100
AcDbEntity
  8
0
 62
7
100
AcDbSpline
 70
8
 71
3
 72
8
 73
4
 74
0
 40
0
 40
0
 40
0
 40
0
 40
1
 40
1
 40
1
 40
1
 10
12.091110
 20
275.157895
 30
0.0
 10
11.627008
 20
275.425845
 30
0.0
 10
11.055211
 20
275.425845
 30
0.0
 10
10.591110
 20
275.157895
 30
0.0
  0
SPLINE
  5
12e
100
AcDbEntity
  8
0
 62
7
100
AcDbSpline
 70
8
 71
3
 72
8
 73
4
 74
0
 40
0
 40
0
 40
0
 40
0
 40
1
 40
1
 40
1
 40
1
 10
10.591110
 20
275.157895
 30
0.0
 10
10.127008
 20
274.889946
 30
0.0
 10
9.841110
 20
274.394756
 30
0.0
 10
9.841110
 20
273.858857
 30
0.0
  0
SPLINE
  5
12f
100
AcDbEntity
  8
0
 62
7
100
AcDbSpline
 70
8
 71
3
 72
8
 73
4
 74
0
 40
0
 40
0
 40
0
 40
0
 40
1
 40
1
 40
1
 40
1
 10
9.841110
 20
273.858857
 30
0.0
 10
9.841110
 20
273.322959
 30
0.0
 10
10.127008
 20
272.827768
 30
0.0
 10
10.591110
 20
272.559819
 30
0.0
  0
SPLINE
  5
130
100
AcDbEntity
  8
0
 62
7
100
AcDbSpline
 70
8
 71
3
 72
8
 73
4
 74
0
 40
0
 40
0
 40
0
 40
0
 40
1
 40
1
 40
1
 40
1
 10
10.591110
 20
272.559819
 30
0.0
 10
11.055211
 20
272.291870
 30
0.0
 10
11.627008
 20
272.291870
 30
0.0
 10
12.091110
 20
272.559819
 30
0.0
  0
SPLINE
  5
131
100
AcDbEntity
  8
0
 62
7
100
AcDbSpline
 70
8
 71
3
 72
8
 73
4
 74
0
 40
0
 40
0
 40
0
 40
0
 40
1
 40
1
 40
1
 40
1
 10
12.091110
 20
272.559819
 30
0.0
 10
12.555211
 20
272.827768
 30
0.0
 10
12.841110
 20
273.322959
 30
0.0
 10
12.841110
 20
273.858857
 30
0.0
  0
LWPOLYLINE
  5
132
100
AcDbEntity
  8
0
 62
7
100
AcDbPolyline
 90
2
 70
0
 10
24.300849
 20
288.037824
 30
0.0
 10
24.300849
 20
281.037824
 30
0.0
  0
SPLINE
  5
133
100
AcDbEntity
  8
0
 62
7
100
AcDbSpline
 70
8
 71
3
 72
8
 73
4
 74
0
 40
0
 40
0
 40
0
 40
0
 40
1
 40
1
 40
1
 40
1
 10
14.841110
 20
268.858858
 30
0.0
 10
14.841110
 20
268.461033
 30
0.0
 10
14.683075
 20
268.079502
 30
0.0
 10
14.401771
 20
267.798197
 30
0.0
  0
SPLINE
  5
134
100
AcDbEntity
  8
0
 62
7
100
AcDbSpline
 70
8
 71
3
 72
8
 73
4
 74
0
 40
0
 40
0
 40
0
 40
0
 40
1
 40
1
 40
1
 40
1
 10
14.401771
 20
267.798197
 30
0.0
 10
14.120466
 20
267.516892
 30
0.0
 10
13.738935
 20
267.358856
 30
0.0
 10
13.341110
 20
267.358856
 30
0.0
  0
LWPOLYLINE
  5
135
100
AcDbEntity
  8
0
 62
7
100
AcDbPolyline
 90
1
 70
1
 10
12.841110
 20
273.858857
 30
0.0
  0
SPLINE
  5
136
100
AcDbEntity
  8
0
 62
7
100
AcDbSpline
 70
8
 71
3
 72
8
 73
4
 74
0
 40
0
 40
0
 40
0
 40
0
 40
1
 40
1
 40
1
 40
1
 10
13.341110
 20
277.358857
 30
0.0
 10
13.738935
 20
277.358857
 30
0.0
 10
14.120465
 20
277.200822
 30
0.0
 10
14.401770
 20
276.919517
 30
0.0
  0
SPLINE
  5
137
100
AcDbEntity
  8
0
 62
7
100
AcDbSpline
 70
8
 71
3
 72
8
 73
4
 74
0
 40
0
 40
0
 40
0
 40
0
 40
1
 40
1
 40
1
 40
1
 10
14.401770
 20
276.919517
 30
0.0
 10
14.683075
 20
276.638213
 30
0.0
 10
14.841110
 20
276.256682
 30
0.0
 10
14.841110
 20
275.858857
 30
0.0
  0
LWPOLYLINE
  5
138
100
AcDbEntity
  8
0
 62
7
100
AcDbPolyline
 90
4
 70
0
 10
13.341110
 20
267.358856
 30
0.0
 10
7.841110
 20
267.358856
 30
0.0
 10
7.841110
 20
277.358857
 30
0.0
 10
13.341110
 20
277.358857
 30
0.0
  0
SPLINE
  5
139
100
AcDbEntity
  8
0
 62
7
100
AcDbSpline
 70
8
 71
3
 72
8
 73
4
 74
0
 40
0
 40
0
 40
0
 40
0
 40
1
 40
1
 40
1
 40
1
 10
22.305656
 20
273.633970
 30
0.0
 10
22.306046
 20
274.170128
 30
0.0
 10
22.020233
 20
274.665726
 30
0.0
 10
21.555971
 20
274.933917
 30
0.0
  0
SPLINE
  5
13a
100
AcDbEntity
  8
0
 62
7
100
AcDbSpline
 70
8
 71
3
 72
8
 73
4
 74
0
 40
0
 40
0
 40
0
 40
0
 40
1
 40
1
 40
1
 40
1
 10
21.555971
 20
274.933917
 30
0.0
 10
21.091710
 20
275.202109
 30
0.0
 10
20.519603
 20
275.202109
 30
0.0
 10
20.055341
 20
274.933917
 30
0.0
  0
SPLINE
  5
13b
100
AcDbEntity
  8
0
 62
7
100
AcDbSpline
 70
8
 71
3
 72
8
 73
4
 74
0
 40
0
 40
0
 40
0
 40
0
 40
1
 40
1
 40
1
 40
1
 10
20.055341
 20
274.933917
 30
0.0
 10
19.591080
 20
274.665726
 30
0.0
 10
19.305267
 20
274.170128
 30
0.0
 10
19.305657
 20
273.633970
 30
0.0
  0
SPLINE
  5
13c
100
AcDbEntity
  8
0
 62
7
100
AcDbSpline
 70
8
 71
3
 72
8
 73
4
 74
0
 40
0
 40
0
 40
0
 40
0
 40
1
 40
1
 40
1
 40
1
 10
19.305657
 20
273.633970
 30
0.0
 10
19.305267
 20
273.097812
 30
0.0
 10
19.591080
 20
272.602214
 30
0.0
 10
20.055341
 20
272.334023
 30
0.0
  0
SPLINE
  5
13d
100
AcDbEntity
  8
0
 62
7
100
AcDbSpline
 70
8
 71
3
 72
8
 73
4
 74
0
 40
0
 40
0
 40
0
 40
0
 40
1
 40
1
 40
1
 40
1
 10
20.055341
 20
272.334023
 30
0.0
 10
20.519603
 20
272.065831
 30
0.0
 10
21.091710
 20
272.065831
 30
0.0
 10
21.555971
 20
272.334023
 30
0.0
  0
SPLINE
  5
13e
100
AcDbEntity
  8
0
 62
7
100
AcDbSpline
 70
8
 71
3
 72
8
 73
4
 74
0
 40
0
 40
0
 40
0
 40
0
 40
1
 40
1
 40
1
 40
1
 10
21.555971
 20
272.334023
 30
0.0
 10
22.020233
 20
272.602214
 30
0.0
 10
22.306046
 20
273.097812
 30
0.0
 10
22.305656
 20
273.633970
 30
0.0
  0
LWPOLYLINE
  5
13f
100
AcDbEntity
  8
0
 62
7
100
AcDbPolyline
 90
2
 70
0
 10
14.841110
 20
275.858857
 30
0.0
 10
14.841110
 20
268.858858
 30
0.0
  0
SPLINE
  5
140
100
AcDbEntity
  8
0
 62
7
100
AcDbSpline
 70
8
 71
3
 72
8
 73
4
 74
0
 40
0
 40
0
 40
0
 40
0
 40
1
 40
1
 40
1
 40
1
 10
24.305657
 20
268.633971
 30
0.0
 10
24.305658
 20
268.236145
 30
0.0
 10
24.147623
 20
267.854614
 30
0.0
 10
23.866319
 20
267.573309
 30
0.0
  0
SPLINE
  5
141
100
AcDbEntity
  8
0
 62
7
100
AcDbSpline
 70
8
 71
3
 72
8
 73
4
 74
0
 40
0
 40
0
 40
0
 40
0
 40
1
 40
1
 40
1
 40
1
 10
23.866319
 20
267.573309
 30
0.0
 10
23.585014
 20
267.292004
 30
0.0
 10
23.203483
 20
267.133968
 30
0.0
 10
22.805658
 20
267.133968
 30
0.0
  0
LWPOLYLINE
  5
142
100
AcDbEntity
  8
0
 62
7
100
AcDbPolyline
 90
1
 70
1
 10
22.305656
 20
273.633970
 30
0.0
  0
SPLINE
  5
143
100
AcDbEntity
  8
0
 62
7
100
AcDbSpline
 70
8
 71
3
 72
8
 73
4
 74
0
 40
0
 40
0
 40
0
 40
0
 40
1
 40
1
 40
1
 40
1
 10
22.805658
 20
277.133970
 30
0.0
 10
23.203482
 20
277.133970
 30
0.0
 10
23.585013
 20
276.975935
 30
0.0
 10
23.866318
 20
276.694630
 30
0.0
  0
SPLINE
  5
144
100
AcDbEntity
  8
0
 62
7
100
AcDbSpline
 70
8
 71
3
 72
8
 73
4
 74
0
 40
0
 40
0
 40
0
 40
0
 40
1
 40
1
 40
1
 40
1
 10
23.866318
 20
276.694630
 30
0.0
 10
24.147622
 20
276.413326
 30
0.0
 10
24.305657
 20
276.031795
 30
0.0
 10
24.305657
 20
275.633970
 30
0.0
  0
LWPOLYLINE
  5
145
100
AcDbEntity
  8
0
 62
7
100
AcDbPolyline
 90
4
 70
0
 10
22.805658
 20
267.133968
 30
0.0
 10
17.305657
 20
267.133968
 30
0.0
 10
17.305657
 20
277.133970
 30
0.0
 10
22.805658
 20
277.133970
 30
0.0
  0
SPLINE
  5
146
100
AcDbEntity
  8
0
 62
7
100
AcDbSpline
 70
8
 71
3
 72
8
 73
4
 74
0
 40
0
 40
0
 40
0
 40
0
 40
1
 40
1
 40
1
 40
1
 10
42.993194
 20
281.602221
 30
0.0
 10
42.711889
 20
281.320916
 30
0.0
 10
42.553853
 20
280.939385
 30
0.0
 10
42.553853
 20
280.541559
 30
0.0
  0
LWPOLYLINE
  5
147
100
AcDbEntity
  8
0
 62
7
100
AcDbPolyline
 90
2
 70
0
 10
24.305657
 20
275.633970
 30
0.0
 10
24.305657
 20
268.633971
 30
0.0
  0
SPLINE
  5
148
100
AcDbEntity
  8
0
 62
7
100
AcDbSpline
 70
8
 71
3
 72
8
 73
4
 74
0
 40
0
 40
0
 40
0
 40
0
 40
1
 40
1
 40
1
 40
1
 10
42.553853
 20
267.662881
 30
0.0
 10
42.553853
 20
267.265056
 30
0.0
 10
42.711888
 20
266.883524
 30
0.0
 10
42.993192
 20
266.602219
 30
0.0
  0
SPLINE
  5
149
100
AcDbEntity
  8
0
 62
7
100
AcDbSpline
 70
8
 71
3
 72
8
 73
4
 74
0
 40
0
 40
0
 40
0
 40
0
 40
1
 40
1
 40
1
 40
1
 10
42.993192
 20
266.602219
 30
0.0
 10
43.274497
 20
266.320914
 30
0.0
 10
43.656028
 20
266.162879
 30
0.0
 10
44.053853
 20
266.162879
 30
0.0
  0
LWPOLYLINE
  5
14a
100
AcDbEntity
  8
0
 62
7
100
AcDbPolyline
 90
2
 70
0
 10
42.553853
 20
280.541559
 30
0.0
 10
42.553853
 20
267.662881
 30
0.0
  0
SPLINE
  5
14b
100
AcDbEntity
  8
0
 62
7
100
AcDbSpline
 70
8
 71
3
 72
8
 73
4
 74
0
 40
0
 40
0
 40
0
 40
0
 40
1
 40
1
 40
1
 40
1
 10
50.553853
 20
266.162879
 30
0.0
 10
51.804283
 20
266.162879
 30
0.0
 10
52.959728
 20
266.829975
 30
0.0
 10
53.584943
 20
267.912879
 30
0.0
  0
SPLINE
  5
14c
100
AcDbEntity
  8
0
 62
7
100
AcDbSpline
 70
8
 71
3
 72
8
 73
4
 74
0
 40
0
 40
0
 40
0
 40
0
 40
1
 40
1
 40
1
 40
1
 10
53.584943
 20
267.912879
 30
0.0
 10
54.210158
 20
268.995783
 30
0.0
 10
54.210158
 20
270.329976
 30
0.0
 10
53.584943
 20
271.412880
 30
0.0
  0
SPLINE
  5
14d
100
AcDbEntity
  8
0
 62
7
100
AcDbSpline
 70
8
 71
3
 72
8
 73
4
 74
0
 40
0
 40
0
 40
0
 40
0
 40
1
 40
1
 40
1
 40
1
 10
53.584943
 20
271.412880
 30
0.0
 10
52.959728
 20
272.495784
 30
0.0
 10
51.804283
 20
273.162881
 30
0.0
 10
50.553853
 20
273.162881
 30
0.0
  0
LWPOLYLINE
  5
14e
100
AcDbEntity
  8
0
 62
7
100
AcDbPolyline
 90
2
 70
0
 10
44.053853
 20
266.162879
 30
0.0
 10
50.553853
 20
266.162879
 30
0.0
  0
SPLINE
  5
14f
100
AcDbEntity
  8
0
 62
7
100
AcDbSpline
 70
8
 71
3
 72
8
 73
4
 74
0
 40
0
 40
0
 40
0
 40
0
 40
1
 40
1
 40
1
 40
1
 10
49.053854
 20
277.162880
 30
0.0
 10
48.225427
 20
277.162880
 30
0.0
 10
47.553854
 20
276.491308
 30
0.0
 10
47.553854
 20
275.662881
 30
0.0
  0
LWPOLYLINE
  5
150
100
AcDbEntity
  8
0
 62
7
100
AcDbPolyline
 90
3
 70
0
 10
50.553853
 20
273.162881
 30
0.0
 10
47.553854
 20
273.162881
 30
0.0
 10
47.553854
 20
275.662881
 30
0.0
  0
SPLINE
  5
151
100
AcDbEntity
  8
0
 62
7
100
AcDbSpline
 70
8
 71
3
 72
8
 73
4
 74
0
 40
0
 40
0
 40
0
 40
0
 40
1
 40
1
 40
1
 40
1
 10
52.553855
 20
269.662880
 30
0.0
 10
52.553855
 20
270.198778
 30
0.0
 10
52.267956
 20
270.693969
 30
0.0
 10
51.803854
 20
270.961919
 30
0.0
  0
SPLINE
  5
152
100
AcDbEntity
  8
0
 62
7
100
AcDbSpline
 70
8
 71
3
 72
8
 73
4
 74
0
 40
0
 40
0
 40
0
 40
0
 40
1
 40
1
 40
1
 40
1
 10
51.803854
 20
270.961919
 30
0.0
 10
51.339752
 20
271.229868
 30
0.0
 10
50.767955
 20
271.229868
 30
0.0
 10
50.303853
 20
270.961919
 30
0.0
  0
SPLINE
  5
153
100
AcDbEntity
  8
0
 62
7
100
AcDbSpline
 70
8
 71
3
 72
8
 73
4
 74
0
 40
0
 40
0
 40
0
 40
0
 40
1
 40
1
 40
1
 40
1
 10
50.303853
 20
270.961919
 30
0.0
 10
49.839751
 20
270.693969
 30
0.0
 10
49.553853
 20
270.198778
 30
0.0
 10
49.553853
 20
269.662880
 30
0.0
  0
SPLINE
  5
154
100
AcDbEntity
  8
0
 62
7
100
AcDbSpline
 70
8
 71
3
 72
8
 73
4
 74
0
 40
0
 40
0
 40
0
 40
0
 40
1
 40
1
 40
1
 40
1
 10
49.553853
 20
269.662880
 30
0.0
 10
49.553853
 20
269.126981
 30
0.0
 10
49.839751
 20
268.631790
 30
0.0
 10
50.303853
 20
268.363841
 30
0.0
  0
SPLINE
  5
155
100
AcDbEntity
  8
0
 62
7
100
AcDbSpline
 70
8
 71
3
 72
8
 73
4
 74
0
 40
0
 40
0
 40
0
 40
0
 40
1
 40
1
 40
1
 40
1
 10
50.303853
 20
268.363841
 30
0.0
 10
50.767955
 20
268.095891
 30
0.0
 10
51.339752
 20
268.095891
 30
0.0
 10
51.803854
 20
268.363841
 30
0.0
  0
SPLINE
  5
156
100
AcDbEntity
  8
0
 62
7
100
AcDbSpline
 70
8
 71
3
 72
8
 73
4
 74
0
 40
0
 40
0
 40
0
 40
0
 40
1
 40
1
 40
1
 40
1
 10
51.803854
 20
268.363841
 30
0.0
 10
52.267956
 20
268.631790
 30
0.0
 10
52.553855
 20
269.126981
 30
0.0
 10
52.553855
 20
269.662880
 30
0.0
  0
LWPOLYLINE
  5
157
100
AcDbEntity
  8
0
 62
7
100
AcDbPolyline
 90
4
 70
0
 10
49.053854
 20
277.162880
 30
0.0
 10
54.553853
 20
277.162880
 30
0.0
 10
54.553853
 20
293.162880
 30
0.0
 10
42.993194
 20
281.602221
 30
0.0
  0
SPLINE
  5
158
100
AcDbEntity
  8
0
 62
7
100
AcDbSpline
 70
8
 71
3
 72
8
 73
4
 74
0
 40
0
 40
0
 40
0
 40
0
 40
1
 40
1
 40
1
 40
1
 10
57.828546
 20
281.393100
 30
0.0
 10
57.547240
 20
281.111795
 30
0.0
 10
57.389205
 20
280.730263
 30
0.0
 10
57.389205
 20
280.332438
 30
0.0
  0
LWPOLYLINE
  5
159
100
AcDbEntity
  8
0
 62
7
100
AcDbPolyline
 90
1
 70
1
 10
52.553855
 20
269.662880
 30
0.0
  0
SPLINE
  5
15a
100
AcDbEntity
  8
0
 62
7
100
AcDbSpline
 70
8
 71
3
 72
8
 73
4
 74
0
 40
0
 40
0
 40
0
 40
0
 40
1
 40
1
 40
1
 40
1
 10
57.389205
 20
267.453760
 30
0.0
 10
57.389204
 20
267.055934
 30
0.0
 10
57.547239
 20
266.674403
 30
0.0
 10
57.828544
 20
266.393098
 30
0.0
  0
SPLINE
  5
15b
100
AcDbEntity
  8
0
 62
7
100
AcDbSpline
 70
8
 71
3
 72
8
 73
4
 74
0
 40
0
 40
0
 40
0
 40
0
 40
1
 40
1
 40
1
 40
1
 10
57.828544
 20
266.393098
 30
0.0
 10
58.109848
 20
266.111793
 30
0.0
 10
58.491380
 20
265.953757
 30
0.0
 10
58.889205
 20
265.953757
 30
0.0
  0
LWPOLYLINE
  5
15c
100
AcDbEntity
  8
0
 62
7
100
AcDbPolyline
 90
2
 70
0
 10
57.389205
 20
280.332438
 30
0.0
 10
57.389205
 20
267.453760
 30
0.0
  0
SPLINE
  5
15d
100
AcDbEntity
  8
0
 62
7
100
AcDbSpline
 70
8
 71
3
 72
8
 73
4
 74
0
 40
0
 40
0
 40
0
 40
0
 40
1
 40
1
 40
1
 40
1
 10
65.389205
 20
265.953757
 30
0.0
 10
66.639635
 20
265.953757
 30
0.0
 10
67.795080
 20
266.620854
 30
0.0
 10
68.420295
 20
267.703758
 30
0.0
  0
SPLINE
  5
15e
100
AcDbEntity
  8
0
 62
7
100
AcDbSpline
 70
8
 71
3
 72
8
 73
4
 74
0
 40
0
 40
0
 40
0
 40
0
 40
1
 40
1
 40
1
 40
1
 10
68.420295
 20
267.703758
 30
0.0
 10
69.045510
 20
268.786662
 30
0.0
 10
69.045510
 20
270.120855
 30
0.0
 10
68.420295
 20
271.203759
 30
0.0
  0
SPLINE
  5
15f
100
AcDbEntity
  8
0
 62
7
100
AcDbSpline
 70
8
 71
3
 72
8
 73
4
 74
0
 40
0
 40
0
 40
0
 40
0
 40
1
 40
1
 40
1
 40
1
 10
68.420295
 20
271.203759
 30
0.0
 10
67.795080
 20
272.286663
 30
0.0
 10
66.639635
 20
272.953759
 30
0.0
 10
65.389205
 20
272.953759
 30
0.0
  0
LWPOLYLINE
  5
160
100
AcDbEntity
  8
0
 62
7
100
AcDbPolyline
 90
2
 70
0
 10
58.889205
 20
265.953757
 30
0.0
 10
65.389205
 20
265.953757
 30
0.0
  0
SPLINE
  5
161
100
AcDbEntity
  8
0
 62
7
100
AcDbSpline
 70
8
 71
3
 72
8
 73
4
 74
0
 40
0
 40
0
 40
0
 40
0
 40
1
 40
1
 40
1
 40
1
 10
63.889205
 20
276.953759
 30
0.0
 10
63.060778
 20
276.953759
 30
0.0
 10
62.389206
 20
276.282186
 30
0.0
 10
62.389206
 20
275.453759
 30
0.0
  0
LWPOLYLINE
  5
162
100
AcDbEntity
  8
0
 62
7
100
AcDbPolyline
 90
3
 70
0
 10
65.389205
 20
272.953759
 30
0.0
 10
62.389206
 20
272.953759
 30
0.0
 10
62.389206
 20
275.453759
 30
0.0
  0
SPLINE
  5
163
100
AcDbEntity
  8
0
 62
7
100
AcDbSpline
 70
8
 71
3
 72
8
 73
4
 74
0
 40
0
 40
0
 40
0
 40
0
 40
1
 40
1
 40
1
 40
1
 10
67.389206
 20
269.453758
 30
0.0
 10
67.389206
 20
269.989657
 30
0.0
 10
67.103308
 20
270.484848
 30
0.0
 10
66.639206
 20
270.752797
 30
0.0
  0
SPLINE
  5
164
100
AcDbEntity
  8
0
 62
7
100
AcDbSpline
 70
8
 71
3
 72
8
 73
4
 74
0
 40
0
 40
0
 40
0
 40
0
 40
1
 40
1
 40
1
 40
1
 10
66.639206
 20
270.752797
 30
0.0
 10
66.175104
 20
271.020747
 30
0.0
 10
65.603307
 20
271.020747
 30
0.0
 10
65.139205
 20
270.752797
 30
0.0
  0
SPLINE
  5
165
100
AcDbEntity
  8
0
 62
7
100
AcDbSpline
 70
8
 71
3
 72
8
 73
4
 74
0
 40
0
 40
0
 40
0
 40
0
 40
1
 40
1
 40
1
 40
1
 10
65.139205
 20
270.752797
 30
0.0
 10
64.675103
 20
270.484848
 30
0.0
 10
64.389204
 20
269.989657
 30
0.0
 10
64.389204
 20
269.453758
 30
0.0
  0
SPLINE
  5
166
100
AcDbEntity
  8
0
 62
7
100
AcDbSpline
 70
8
 71
3
 72
8
 73
4
 74
0
 40
0
 40
0
 40
0
 40
0
 40
1
 40
1
 40
1
 40
1
 10
64.389204
 20
269.453758
 30
0.0
 10
64.389204
 20
268.917859
 30
0.0
 10
64.675103
 20
268.422669
 30
0.0
 10
65.139205
 20
268.154719
 30
0.0
  0
SPLINE
  5
167
100
AcDbEntity
  8
0
 62
7
100
AcDbSpline
 70
8
 71
3
 72
8
 73
4
 74
0
 40
0
 40
0
 40
0
 40
0
 40
1
 40
1
 40
1
 40
1
 10
65.139205
 20
268.154719
 30
0.0
 10
65.603307
 20
267.886770
 30
0.0
 10
66.175104
 20
267.886770
 30
0.0
 10
66.639206
 20
268.154719
 30
0.0
  0
SPLINE
  5
168
100
AcDbEntity
  8
0
 62
7
100
AcDbSpline
 70
8
 71
3
 72
8
 73
4
 74
0
 40
0
 40
0
 40
0
 40
0
 40
1
 40
1
 40
1
 40
1
 10
66.639206
 20
268.154719
 30
0.0
 10
67.103308
 20
268.422669
 30
0.0
 10
67.389206
 20
268.917859
 30
0.0
 10
67.389206
 20
269.453758
 30
0.0
  0
LWPOLYLINE
  5
169
100
AcDbEntity
  8
0
 62
7
100
AcDbPolyline
 90
4
 70
0
 10
63.889205
 20
276.953759
 30
0.0
 10
69.389205
 20
276.953759
 30
0.0
 10
69.389205
 20
292.953759
 30
0.0
 10
57.828546
 20
281.393100
 30
0.0
  0
SPLINE
  5
16a
100
AcDbEntity
  8
0
 62
7
100
AcDbSpline
 70
8
 71
3
 72
8
 73
4
 74
0
 40
0
 40
0
 40
0
 40
0
 40
1
 40
1
 40
1
 40
1
 10
72.651636
 20
280.921467
 30
0.0
 10
72.370331
 20
280.640162
 30
0.0
 10
72.212295
 20
280.258630
 30
0.0
 10
72.212295
 20
279.860805
 30
0.0
  0
LWPOLYLINE
  5
16b
100
AcDbEntity
  8
0
 62
7
100
AcDbPolyline
 90
1
 70
1
 10
67.389206
 20
269.453758
 30
0.0
  0
SPLINE
  5
16c
100
AcDbEntity
  8
0
 62
7
100
AcDbSpline
 70
8
 71
3
 72
8
 73
4
 74
0
 40
0
 40
0
 40
0
 40
0
 40
1
 40
1
 40
1
 40
1
 10
72.212295
 20
266.982127
 30
0.0
 10
72.212295
 20
266.584301
 30
0.0
 10
72.370330
 20
266.202770
 30
0.0
 10
72.651634
 20
265.921465
 30
0.0
  0
SPLINE
  5
16d
100
AcDbEntity
  8
0
 62
7
100
AcDbSpline
 70
8
 71
3
 72
8
 73
4
 74
0
 40
0
 40
0
 40
0
 40
0
 40
1
 40
1
 40
1
 40
1
 10
72.651634
 20
265.921465
 30
0.0
 10
72.932939
 20
265.640160
 30
0.0
 10
73.314470
 20
265.482124
 30
0.0
 10
73.712295
 20
265.482124
 30
0.0
  0
LWPOLYLINE
  5
16e
100
AcDbEntity
  8
0
 62
7
100
AcDbPolyline
 90
2
 70
0
 10
72.212295
 20
279.860805
 30
0.0
 10
72.212295
 20
266.982127
 30
0.0
  0
SPLINE
  5
16f
100
AcDbEntity
  8
0
 62
7
100
AcDbSpline
 70
8
 71
3
 72
8
 73
4
 74
0
 40
0
 40
0
 40
0
 40
0
 40
1
 40
1
 40
1
 40
1
 10
80.212295
 20
265.482124
 30
0.0
 10
81.462725
 20
265.482124
 30
0.0
 10
82.618170
 20
266.149221
 30
0.0
 10
83.243385
 20
267.232125
 30
0.0
  0
SPLINE
  5
170
100
AcDbEntity
  8
0
 62
7
100
AcDbSpline
 70
8
 71
3
 72
8
 73
4
 74
0
 40
0
 40
0
 40
0
 40
0
 40
1
 40
1
 40
1
 40
1
 10
83.243385
 20
267.232125
 30
0.0
 10
83.868600
 20
268.315029
 30
0.0
 10
83.868600
 20
269.649222
 30
0.0
 10
83.243385
 20
270.732126
 30
0.0
  0
SPLINE
  5
171
100
AcDbEntity
  8
0
 62
7
100
AcDbSpline
 70
8
 71
3
 72
8
 73
4
 74
0
 40
0
 40
0
 40
0
 40
0
 40
1
 40
1
 40
1
 40
1
 10
83.243385
 20
270.732126
 30
0.0
 10
82.618170
 20
271.815030
 30
0.0
 10
81.462725
 20
272.482126
 30
0.0
 10
80.212295
 20
272.482126
 30
0.0
  0
LWPOLYLINE
  5
172
100
AcDbEntity
  8
0
 62
7
100
AcDbPolyline
 90
2
 70
0
 10
73.712295
 20
265.482124
 30
0.0
 10
80.212295
 20
265.482124
 30
0.0
  0
SPLINE
  5
173
100
AcDbEntity
  8
0
 62
7
100
AcDbSpline
 70
8
 71
3
 72
8
 73
4
 74
0
 40
0
 40
0
 40
0
 40
0
 40
1
 40
1
 40
1
 40
1
 10
78.712295
 20
276.482126
 30
0.0
 10
77.883869
 20
276.482126
 30
0.0
 10
77.212296
 20
275.810553
 30
0.0
 10
77.212296
 20
274.982126
 30
0.0
  0
LWPOLYLINE
  5
174
100
AcDbEntity
  8
0
 62
7
100
AcDbPolyline
 90
3
 70
0
 10
80.212295
 20
272.482126
 30
0.0
 10
77.212296
 20
272.482126
 30
0.0
 10
77.212296
 20
274.982126
 30
0.0
  0
SPLINE
  5
175
100
AcDbEntity
  8
0
 62
7
100
AcDbSpline
 70
8
 71
3
 72
8
 73
4
 74
0
 40
0
 40
0
 40
0
 40
0
 40
1
 40
1
 40
1
 40
1
 10
82.212296
 20
268.982125
 30
0.0
 10
82.212296
 20
269.518024
 30
0.0
 10
81.926398
 20
270.013215
 30
0.0
 10
81.462296
 20
270.281164
 30
0.0
  0
SPLINE
  5
176
100
AcDbEntity
  8
0
 62
7
100
AcDbSpline
 70
8
 71
3
 72
8
 73
4
 74
0
 40
0
 40
0
 40
0
 40
0
 40
1
 40
1
 40
1
 40
1
 10
81.462296
 20
270.281164
 30
0.0
 10
80.998194
 20
270.549113
 30
0.0
 10
80.426397
 20
270.549113
 30
0.0
 10
79.962295
 20
270.281164
 30
0.0
  0
SPLINE
  5
177
100
AcDbEntity
  8
0
 62
7
100
AcDbSpline
 70
8
 71
3
 72
8
 73
4
 74
0
 40
0
 40
0
 40
0
 40
0
 40
1
 40
1
 40
1
 40
1
 10
79.962295
 20
270.281164
 30
0.0
 10
79.498193
 20
270.013215
 30
0.0
 10
79.212294
 20
269.518024
 30
0.0
 10
79.212294
 20
268.982125
 30
0.0
  0
SPLINE
  5
178
100
AcDbEntity
  8
0
 62
7
100
AcDbSpline
 70
8
 71
3
 72
8
 73
4
 74
0
 40
0
 40
0
 40
0
 40
0
 40
1
 40
1
 40
1
 40
1
 10
79.212294
 20
268.982125
 30
0.0
 10
79.212294
 20
268.446226
 30
0.0
 10
79.498193
 20
267.951036
 30
0.0
 10
79.962295
 20
267.683086
 30
0.0
  0
SPLINE
  5
179
100
AcDbEntity
  8
0
 62
7
100
AcDbSpline
 70
8
 71
3
 72
8
 73
4
 74
0
 40
0
 40
0
 40
0
 40
0
 40
1
 40
1
 40
1
 40
1
 10
79.962295
 20
267.683086
 30
0.0
 10
80.426397
 20
267.415137
 30
0.0
 10
80.998194
 20
267.415137
 30
0.0
 10
81.462296
 20
267.683086
 30
0.0
  0
SPLINE
  5
17a
100
AcDbEntity
  8
0
 62
7
100
AcDbSpline
 70
8
 71
3
 72
8
 73
4
 74
0
 40
0
 40
0
 40
0
 40
0
 40
1
 40
1
 40
1
 40
1
 10
81.462296
 20
267.683086
 30
0.0
 10
81.926398
 20
267.951036
 30
0.0
 10
82.212296
 20
268.446226
 30
0.0
 10
82.212296
 20
268.982125
 30
0.0
  0
LWPOLYLINE
  5
17b
100
AcDbEntity
  8
0
 62
7
100
AcDbPolyline
 90
4
 70
0
 10
78.712295
 20
276.482126
 30
0.0
 10
84.212295
 20
276.482126
 30
0.0
 10
84.212295
 20
292.482126
 30
0.0
 10
72.651636
 20
280.921467
 30
0.0
  0
LWPOLYLINE
  5
17c
100
AcDbEntity
  8
0
 62
7
100
AcDbPolyline
 90
1
 70
1
 10
82.212296
 20
268.982125
 30
0.0
  0
ENDSEC
  0
SECTION
  2
OBJECTS
  0
DICTIONARY
  5
C
330
0
100
AcDbDictionary
  3
ACAD_GROUP
350
D
  3
ACAD_MLINESTYLE
350
17
  0
DICTIONARY
  5
D
330
C
100
AcDbDictionary
  0
DICTIONARY
  5
1A
330
C
100
AcDbDictionary
  0
DICTIONARY
  5
17
330
C
100
AcDbDictionary
  3
STANDARD
350
18
  0
DICTIONARY
  5
19
330
C
100
AcDbDictionary
  0
ENDSEC
  0
EOF
